<?xml version="1.0" encoding="UTF-8" standalone="no"?>
<!-- Generator: Adobe Illustrator 19.1.0, SVG Export Plug-In . SVG Version: 6.00 Build 0)  -->

<svg
   xmlns:dc="http://purl.org/dc/elements/1.1/"
   xmlns:cc="http://creativecommons.org/ns#"
   xmlns:rdf="http://www.w3.org/1999/02/22-rdf-syntax-ns#"
   xmlns:svg="http://www.w3.org/2000/svg"
   xmlns="http://www.w3.org/2000/svg"
   xmlns:sodipodi="http://sodipodi.sourceforge.net/DTD/sodipodi-0.dtd"
   xmlns:inkscape="http://www.inkscape.org/namespaces/inkscape"
   version="1.1"
   id="Capa_1"
   x="0px"
   y="0px"
   viewBox="0 0 147.7 57.410713"
   xml:space="preserve"
   inkscape:version="0.91 r13725"
   sodipodi:docname="logo_blanco.svg"
   width="147.7"
   height="57.410713"><metadata
     id="metadata21"><rdf:RDF><cc:Work
         rdf:about=""><dc:format>image/svg+xml</dc:format><dc:type
           rdf:resource="http://purl.org/dc/dcmitype/StillImage" /><dc:title></dc:title></cc:Work></rdf:RDF></metadata><defs
     id="defs19" /><sodipodi:namedview
     pagecolor="#ffffff"
     bordercolor="#666666"
     borderopacity="0"
     objecttolerance="10"
     gridtolerance="10"
     guidetolerance="10"
     inkscape:pageopacity="0"
     inkscape:pageshadow="2"
     inkscape:window-width="1481"
     inkscape:window-height="864"
     id="namedview17"
     showgrid="false"
     fit-margin-top="0"
     fit-margin-left="0"
     fit-margin-right="0"
     fit-margin-bottom="0"
     inkscape:zoom="1.9884542"
     inkscape:cx="34.872095"
     inkscape:cy="27.450001"
     inkscape:window-x="21"
     inkscape:window-y="9"
     inkscape:window-maximized="0"
     inkscape:current-layer="Capa_1" /><style
     type="text/css"
     id="style3">
	.st0{fill:#BE3969;}
	.st1{fill:#BF3969;}
	.st2{fill:#9B214A;}
</style><g
     id="g5"
     transform="translate(-3.6,-8.2892857)"
     style="opacity:1;fill:#ffffff;fill-opacity:1"><path
       class="st1"
       d="M 36.5,10.1 C 31.5,7.5 26.3,7.7 22,10.7 13.7,16.5 3.6,36 3.6,51.5 l 0,1.5 0,0.2 c 0.5,6.7 6.1,12 12.8,12.1 l 16.3,0 c 0.1,0 0.1,0 0.2,0 4.4,0 8.4,-2.1 10.9,-5.6 1,-1.5 1.7,-3.2 2,-4.9 -1.8,0.6 -4,0.9 -6.3,1 -0.1,0.2 -0.3,0.5 -0.4,0.7 -1.4,2 -3.8,3.3 -6.4,3.2 l -16.3,0 C 12.7,59.6 9.5,56.6 9.2,53 l 0,-1.5 c 0,-14.3 9.7,-31.7 16,-36.1 2.6,-1.8 5.4,-1.9 8.6,-0.2 7.4,3.8 14.6,16.1 14.6,24.8 0,1.5 0,5.1 -3.5,7 l 0,0 c -1.3,0.7 -3.1,1.1 -5.6,1.1 l 0,0 0,0 -14.9,0 C 23.7,48.1 23.2,48 23.2,48 l 0,0 c -0.6,-0.2 -1.1,-0.6 -1.4,-1 -0.2,-0.4 -0.2,-0.7 -0.1,-1.2 0,-0.1 0.1,-0.2 0.1,-0.3 l 6.4,-14.6 c 0.6,-1.4 2,-1.5 2.4,-1.5 0.4,0 1.7,0.1 2.4,1.3 l 5.6,15.3 0.8,0 c 2.2,0 3.8,-0.4 4.9,-1 l -6,-16.4 -0.1,-0.3 c -1.4,-2.9 -4.3,-4.7 -7.7,-4.7 -3.3,0.1 -6.2,1.9 -7.5,4.9 l -6.4,14.6 c -0.1,0.3 -0.2,0.6 -0.3,0.8 -0.6,1.9 -0.4,3.9 0.5,5.6 1,1.8 2.8,3.2 4.9,3.8 0.2,0.1 1.2,0.3 2.7,0.3 l 15,0 c 0.3,0 0.7,0 1,0 0,0 0,0 0,0 2.1,-0.1 4.1,-0.5 5.8,-1.1 0,0 0,0 0,0 5,-2 7.9,-6.4 7.9,-12.6 C 54,30.2 46.5,15.4 36.5,10.1 Z"
       id="path7"
       inkscape:connector-curvature="0"
       style="fill:#ffffff;fill-opacity:1" /><g
       id="g9"
       style="fill:#ffffff;fill-opacity:1"><path
         class="st0"
         d="m 96.4,65.1 -9.4,0 -2.2,-7.8 -13.5,0 -2.2,7.8 -9.4,0 12.3,-40.2 12,0 12.4,40.2 z m -23,-15.4 9.2,0 L 78,32.9 73.4,49.7 Z"
         id="path11"
         inkscape:connector-curvature="0"
         style="fill:#ffffff;fill-opacity:1" /><path
         class="st0"
         d="m 97,46 c 0,-6.9 3,-10.9 9.9,-10.9 2.4,0 5.5,0.4 7.5,0.8 l 0,-12.2 8.7,-1.2 0,42.6 -6.8,0 -0.9,-2.4 c -2.1,1.3 -5.9,3 -9.1,3 -6,0 -9.3,-3.7 -9.3,-10.9 L 97,46 Z m 17.3,-2.6 c -1.5,-0.4 -3.7,-0.7 -5.6,-0.7 -2.3,0 -3.1,1.4 -3.1,3.3 l 0,8.9 c 0,2.1 0.8,3.3 3.1,3.3 2,0 4.3,-1.2 5.6,-2.3 l 0,-12.5 z"
         id="path13"
         inkscape:connector-curvature="0"
         style="fill:#ffffff;fill-opacity:1" /><path
         class="st0"
         d="m 144.2,65.1 -0.6,-1.9 c -3.4,1.9 -6.4,2.5 -8.4,2.5 -5.4,0 -7.7,-3.9 -7.7,-8.9 0,-5.9 2.7,-8.3 8.8,-8.3 l 6.3,0 0,-2.2 c 0,-3 -0.5,-4 -5.2,-4 -2.6,0 -5.2,0.3 -8,0.8 l -1.1,-6.5 c 2.8,-0.8 7.2,-1.4 10.6,-1.4 10.2,0 12.4,3.1 12.4,11.2 l 0,18.8 -7.1,0 z m -1.5,-10.5 -4.2,0 c -1.9,0 -2.6,0.5 -2.6,2.1 0,1.6 0.7,2.3 2.4,2.3 1.8,0 3.1,-0.4 4.4,-1 l 0,-3.4 z"
         id="path15"
         inkscape:connector-curvature="0"
         style="fill:#ffffff;fill-opacity:1" /></g></g></svg>